<?xml version="1.0" standalone="no"?><!DOCTYPE svg PUBLIC "-//W3C//DTD SVG 1.1//EN" "http://www.w3.org/Graphics/SVG/1.1/DTD/svg11.dtd">
<svg
	t="1735127795772"
	class="icon"
	viewBox="0 0 1024 1024"
	version="1.1"
	xmlns="http://www.w3.org/2000/svg"
	p-id="2135"
	xmlns:xlink="http://www.w3.org/1999/xlink"
	width="256"
	height="256"
>
	<path
		d="M42.666667 85.333333m42.666666 0l853.333334 0q42.666667 0 42.666666 42.666667l0 0q0 42.666667-42.666666 42.666667l-853.333334 0q-42.666667 0-42.666666-42.666667l0 0q0-42.666667 42.666666-42.666667Z"
		p-id="2136"
	></path>
	<path
		d="M426.666667 341.333333m42.666666 0l469.333334 0q42.666667 0 42.666666 42.666667l0 0q0 42.666667-42.666666 42.666667l-469.333334 0q-42.666667 0-42.666666-42.666667l0 0q0-42.666667 42.666666-42.666667Z"
		p-id="2137"
	></path>
	<path
		d="M426.666667 597.333333m42.666666 0l469.333334 0q42.666667 0 42.666666 42.666667l0 0q0 42.666667-42.666666 42.666667l-469.333334 0q-42.666667 0-42.666666-42.666667l0 0q0-42.666667 42.666666-42.666667Z"
		p-id="2138"
	></path>
	<path
		d="M42.666667 853.333333m42.666666 0l853.333334 0q42.666667 0 42.666666 42.666667l0 0q0 42.666667-42.666666 42.666667l-853.333334 0q-42.666667 0-42.666666-42.666667l0 0q0-42.666667 42.666666-42.666667Z"
		p-id="2139"
	></path>
	<path
		d="M234.026667 349.568a42.666667 42.666667 0 0 1 54.485333 65.450667l-4.096 3.413333L156.458667 512l127.957333 93.568a42.666667 42.666667 0 0 1 12.117333 55.082667l-2.858666 4.522666a42.666667 42.666667 0 0 1-55.125334 12.16l-4.522666-2.901333-175.018667-128a42.666667 42.666667 0 0 1-4.096-65.493333l4.096-3.413334 175.018667-128z"
		p-id="2140"
	></path>
</svg>
