<?xml version="1.0" standalone="no"?><!DOCTYPE svg PUBLIC "-//W3C//DTD SVG 1.1//EN" "http://www.w3.org/Graphics/SVG/1.1/DTD/svg11.dtd">
<svg
	t="1735182661616"
	class="icon"
	viewBox="0 0 1024 1024"
	version="1.1"
	xmlns="http://www.w3.org/2000/svg"
	p-id="1065"
	xmlns:xlink="http://www.w3.org/1999/xlink"
	width="256"
	height="256"
>
	<path
		d="M938.666667 42.666667a42.666667 42.666667 0 0 1 42.368 37.674666L981.333333 85.333333v213.333334a42.666667 42.666667 0 0 1-85.034666 4.992L896 298.666667V128h-170.666667a42.666667 42.666667 0 0 1-42.368-37.674667L682.666667 85.333333a42.666667 42.666667 0 0 1 37.674666-42.368L725.333333 42.666667h213.333334z m0 640a42.666667 42.666667 0 0 1 42.368 37.674666L981.333333 725.333333v213.333334a42.666667 42.666667 0 0 1-37.674666 42.368L938.666667 981.333333h-213.333334a42.666667 42.666667 0 0 1-4.992-85.034666L725.333333 896h170.666667v-170.666667a42.666667 42.666667 0 0 1 37.674667-42.368L938.666667 682.666667zM85.333333 682.666667a42.666667 42.666667 0 0 1 42.368 37.674666L128 725.333333v170.666667h170.666667a42.666667 42.666667 0 0 1 42.368 37.674667L341.333333 938.666667a42.666667 42.666667 0 0 1-37.674666 42.368L298.666667 981.333333H85.333333a42.666667 42.666667 0 0 1-42.368-37.674666L42.666667 938.666667v-213.333334a42.666667 42.666667 0 0 1 42.666666-42.666666zM298.666667 42.666667a42.666667 42.666667 0 0 1 4.992 85.034666L298.666667 128H128v170.666667a42.666667 42.666667 0 0 1-37.674667 42.368L85.333333 341.333333a42.666667 42.666667 0 0 1-42.368-37.674666L42.666667 298.666667V85.333333a42.666667 42.666667 0 0 1 37.674666-42.368L85.333333 42.666667h213.333334zM725.333333 256H298.666667a42.666667 42.666667 0 0 0-42.666667 42.666667v426.666666a42.666667 42.666667 0 0 0 42.666667 42.666667h426.666666a42.666667 42.666667 0 0 0 42.666667-42.666667V298.666667a42.666667 42.666667 0 0 0-42.666667-42.666667z m-42.666666 85.333333v341.333334H341.333333V341.333333h341.333334z"
		p-id="1066"
	></path>
</svg>
