<?xml version="1.0" standalone="no"?><!DOCTYPE svg PUBLIC "-//W3C//DTD SVG 1.1//EN" "http://www.w3.org/Graphics/SVG/1.1/DTD/svg11.dtd">
<svg
	t="1735182665079"
	class="icon"
	viewBox="0 0 1024 1024"
	version="1.1"
	xmlns="http://www.w3.org/2000/svg"
	p-id="1226"
	xmlns:xlink="http://www.w3.org/1999/xlink"
	width="256"
	height="256"
>
	<path
		d="M224 768a42.666667 42.666667 0 0 1 42.368 37.674667L266.666667 810.666667v138.666666a42.666667 42.666667 0 0 1-85.034667 4.992l-0.298667-4.992V853.333333H85.333333a42.666667 42.666667 0 0 1-42.368-37.674666L42.666667 810.666667a42.666667 42.666667 0 0 1 37.674666-42.368L85.333333 768h138.666667z m725.333333 0a42.666667 42.666667 0 0 1 4.992 85.034667L949.333333 853.333333H853.333333v96a42.666667 42.666667 0 0 1-37.674666 42.368L810.666667 992a42.666667 42.666667 0 0 1-42.368-37.674667L768 949.333333V810.666667a42.666667 42.666667 0 0 1 37.674667-42.368L810.666667 768h138.666666zM725.333333 256a42.666667 42.666667 0 0 1 42.666667 42.666667v426.666666a42.666667 42.666667 0 0 1-42.666667 42.666667H298.666667a42.666667 42.666667 0 0 1-42.666667-42.666667V298.666667a42.666667 42.666667 0 0 1 42.666667-42.666667z m-42.666666 85.333333H341.333333v341.333334h341.333334V341.333333zM224 42.666667a42.666667 42.666667 0 0 1 42.368 37.674666L266.666667 85.333333v138.666667a42.666667 42.666667 0 0 1-37.674667 42.368l-4.992 0.298667H85.333333a42.666667 42.666667 0 0 1-4.992-85.034667L85.333333 181.333333h96V85.333333a42.666667 42.666667 0 0 1 37.674667-42.368L224 42.666667zM810.666667 42.666667a42.666667 42.666667 0 0 1 42.368 37.674666L853.333333 85.333333v96h96a42.666667 42.666667 0 0 1 42.368 37.674667l0.298667 4.992a42.666667 42.666667 0 0 1-37.674667 42.368l-4.992 0.298667H810.666667a42.666667 42.666667 0 0 1-42.368-37.674667L768 224V85.333333a42.666667 42.666667 0 0 1 42.666667-42.666666z"
		p-id="1227"
	></path>
</svg>
